<?xml version="1.0" standalone="no"?>
<!DOCTYPE svg PUBLIC "-//W3C//DTD SVG 20010904//EN"
 "http://www.w3.org/TR/2001/REC-SVG-20010904/DTD/svg10.dtd">
<svg version="1.0" xmlns="http://www.w3.org/2000/svg"
 width="300.000000pt" height="300.000000pt" viewBox="0 0 300.000000 300.000000"
 preserveAspectRatio="xMidYMid meet">
<metadata>
Created by potrace 1.10, written by Peter Selinger 2001-2011
</metadata>
<g transform="translate(0.000000,300.000000) scale(0.100000,-0.100000)"
fill="#000000" stroke="none">
<path d="M1530 2453 c-31 -11 -71 -58 -80 -95 -15 -53 -52 -92 -132 -139 -57
-34 -76 -40 -101 -34 -93 19 -111 18 -153 -13 -74 -54 -80 -144 -15 -218 l31
-35 0 -128 0 -128 -29 -31 c-79 -82 -50 -208 56 -243 19 -6 49 -8 66 -5 43 8
105 69 113 111 7 38 35 72 71 86 14 5 27 8 28 7 1 -2 22 -52 45 -112 l43 -108
-18 -50 c-20 -56 -15 -95 16 -139 67 -94 200 -74 242 36 11 28 22 56 26 63 10
21 180 122 204 122 12 0 39 -5 60 -11 45 -12 67 -6 107 28 71 60 77 139 14
214 l-34 41 0 123 0 123 35 38 c63 71 54 167 -22 219 -61 41 -126 32 -183 -25
-19 -18 -40 -65 -40 -87 0 -24 -50 -73 -75 -73 -23 0 -38 27 -89 161 l-26 67
20 45 c30 68 10 138 -53 182 -21 15 -96 19 -127 8z m131 -52 c23 -24 29 -38
29 -73 0 -24 -7 -53 -15 -64 -8 -10 -14 -28 -15 -39 0 -23 95 -274 109 -288
11 -11 112 52 135 84 9 13 16 37 16 54 0 67 97 116 158 79 40 -23 57 -56 55
-107 -2 -35 -8 -47 -37 -73 l-36 -31 0 -151 0 -152 26 -17 c60 -39 67 -132 12
-178 -40 -34 -70 -40 -106 -21 -17 9 -39 16 -48 16 -20 0 -201 -107 -231 -137
-15 -14 -23 -34 -23 -55 -1 -117 -177 -132 -211 -18 -11 36 -10 45 10 84 l22
44 -36 94 c-20 51 -41 107 -47 123 -25 66 -37 68 -111 21 -49 -31 -55 -39 -60
-78 -10 -77 -88 -125 -153 -95 -44 21 -69 61 -68 110 1 31 9 47 43 81 l41 42
0 137 0 138 -39 38 c-50 49 -59 87 -32 138 29 59 88 78 141 48 39 -22 57 -18
139 32 106 65 137 96 145 145 10 61 52 98 111 98 38 0 52 -5 76 -29z"/>
<path d="M1380 2157 c-169 -106 -167 -114 53 -243 71 -41 141 -76 155 -76 36
-1 88 26 108 57 15 22 13 30 -36 153 -83 213 -104 221 -280 109z m184 11 c22
-21 106 -214 106 -244 0 -21 -67 -56 -92 -49 -13 4 -63 30 -111 59 -48 28 -99
57 -112 64 -24 13 -62 59 -54 66 2 2 31 21 64 43 143 94 157 99 199 61z"/>
<path d="M1187 1952 c-14 -15 -17 -42 -17 -154 0 -75 3 -144 6 -153 10 -25 51
-37 77 -24 86 45 257 152 257 162 0 7 -4 17 -8 23 -11 18 -264 164 -283 164
-9 0 -23 -8 -32 -18z m81 -40 c20 -10 62 -34 92 -52 30 -19 65 -40 78 -47 12
-7 22 -17 22 -22 0 -5 -33 -29 -72 -54 -123 -75 -157 -92 -168 -81 -11 11 -16
246 -6 263 9 14 10 14 54 -7z"/>
<path d="M1815 1894 c-148 -86 -164 -100 -138 -125 40 -36 244 -149 271 -149
49 0 52 12 52 177 0 140 -2 153 -19 163 -11 5 -23 10 -28 10 -4 0 -66 -34
-138 -76z m149 14 c8 -30 8 -187 0 -227 -6 -26 -10 -30 -28 -25 -38 11 -215
119 -216 131 0 13 207 141 231 143 4 0 9 -10 13 -22z"/>
<path d="M1509 1711 c-25 -16 -49 -36 -52 -43 -3 -8 7 -43 22 -79 15 -35 39
-93 52 -128 41 -108 98 -135 182 -87 158 90 207 126 207 155 0 25 -33 50 -183
140 -135 81 -158 85 -228 42z m171 -46 c8 -6 54 -34 102 -61 112 -62 120 -80
55 -118 -228 -136 -226 -136 -297 39 -46 113 -49 135 -18 154 51 32 102 27
158 -14z"/>
<path d="M632 874 c-21 -14 -22 -23 -22 -158 0 -181 0 -181 122 -170 45 3 90
10 99 15 10 5 24 2 38 -8 18 -12 28 -13 47 -4 13 6 25 15 25 21 1 5 3 15 4 20
1 6 3 19 4 29 2 42 81 28 81 -14 0 -7 9 -24 21 -39 23 -29 63 -35 93 -13 16
11 25 11 60 -1 93 -34 214 14 230 90 l7 33 30 -57 c16 -32 38 -62 50 -68 17
-10 25 -6 55 25 l34 36 26 -30 c36 -43 90 -56 145 -35 33 14 46 15 60 6 28
-18 67 -14 89 8 15 15 20 33 20 75 0 38 4 55 13 55 27 0 34 -20 23 -61 -10
-39 -9 -42 19 -66 26 -23 35 -25 82 -19 30 3 62 12 73 18 15 10 27 8 64 -10
38 -20 51 -22 82 -13 69 19 100 66 72 111 -10 15 -9 22 5 38 24 27 21 55 -10
86 -37 37 -61 40 -128 18 -56 -19 -60 -19 -81 -3 -18 14 -43 17 -163 15 -84 0
-146 -5 -153 -12 -7 -7 -21 -6 -45 5 -27 11 -46 12 -79 5 -41 -9 -67 -1 -44
13 18 11 10 44 -15 61 -24 16 -27 15 -45 -1 -10 -9 -22 -31 -25 -49 -9 -43
-26 -86 -35 -86 -7 0 -34 58 -45 98 -4 12 -18 30 -31 39 -21 14 -30 14 -63 3
-29 -9 -47 -10 -72 -1 -76 24 -215 -29 -234 -89 -9 -29 -21 -25 -36 13 -17 41
-66 90 -82 81 -32 -18 -57 -50 -57 -73 0 -52 -15 -53 -48 -5 -39 54 -73 70
-168 77 -54 5 -76 3 -92 -9z m181 -41 c46 -23 69 -70 64 -131 -6 -89 -63 -132
-177 -132 -64 0 -86 9 -60 25 15 9 13 232 -2 242 -16 10 64 21 112 15 19 -3
48 -11 63 -19z m542 11 c12 -5 28 -64 17 -64 -2 0 -17 14 -32 30 -22 23 -36
30 -67 30 -60 -1 -93 -37 -93 -105 0 -100 76 -169 154 -139 19 7 22 74 4 92
-9 9 -4 12 23 12 39 0 37 4 30 -82 -2 -16 -72 -48 -107 -48 -158 0 -203 212
-59 276 27 13 94 11 130 -2z m122 -8 c0 -7 17 -57 38 -111 l38 -98 38 102 c21
56 36 107 33 114 -2 7 6 13 21 13 28 2 31 -3 11 -25 -7 -9 -35 -71 -62 -138
-27 -68 -53 -122 -57 -120 -4 1 -30 58 -58 127 -28 69 -55 129 -60 135 -16 16
-10 21 24 17 19 -2 34 -9 34 -16z m-412 -106 c27 -67 55 -126 62 -132 22 -18
14 -28 -22 -28 -28 0 -35 4 -35 19 0 10 -7 35 -16 56 -10 26 -20 35 -30 31 -9
-3 -31 -6 -50 -6 -30 0 -37 -5 -49 -34 -8 -19 -12 -42 -9 -50 5 -12 0 -16 -20
-16 -25 0 -36 15 -16 22 14 4 101 220 96 235 -5 11 8 21 30 22 6 1 32 -53 59
-119z m260 50 c26 -18 46 -26 50 -20 11 18 32 11 43 -15 17 -36 16 -37 -18
-20 -37 19 -49 19 -72 -2 -12 -11 -18 -30 -18 -60 0 -40 -2 -44 -21 -41 -48 7
-87 116 -60 167 16 29 44 26 96 -9z m476 -29 c16 -16 29 -34 29 -40 0 -7 -28
-11 -75 -11 -73 0 -75 -1 -75 -25 0 -55 77 -85 128 -49 30 21 28 3 -4 -27 -38
-36 -107 -34 -140 4 -28 32 -31 75 -9 117 34 65 98 79 146 31z m109 9 c0 -20
0 -20 29 1 31 23 66 22 66 -1 0 -11 -11 -15 -38 -16 -54 -1 -60 -11 -55 -98
l3 -76 -33 0 c-30 0 -33 2 -26 23 10 27 10 126 0 148 -5 11 0 19 16 27 33 15
38 14 38 -8z m231 10 c10 -6 19 -20 19 -30 0 -26 -12 -25 -28 0 -13 22 -76 29
-87 9 -10 -15 21 -46 53 -54 88 -22 80 -125 -10 -125 -53 0 -78 17 -78 52 l1
33 16 -27 c32 -51 103 -60 103 -13 0 18 -10 27 -42 40 -81 32 -95 59 -53 100
26 27 72 33 106 15z m210 -16 c11 -9 19 -25 19 -36 0 -16 -9 -18 -76 -18 l-76
0 7 -27 c3 -16 14 -36 22 -45 20 -22 86 -24 103 -3 14 17 30 20 30 5 0 -17
-74 -60 -103 -60 -45 0 -87 48 -87 100 0 35 6 48 35 77 31 31 40 35 72 30 19
-4 44 -14 54 -23z"/>
<path d="M690 715 l0 -125 45 0 c67 0 95 31 95 105 0 31 -7 69 -15 85 -17 33
-61 60 -100 60 l-25 0 0 -125z m87 45 c18 -36 16 -105 -3 -125 -29 -29 -39
-12 -42 74 -3 74 -1 82 15 79 10 -2 23 -14 30 -28z"/>
<path d="M973 763 c-6 -21 -15 -46 -18 -55 -6 -15 -1 -18 34 -18 23 0 41 4 41
9 0 9 -39 101 -43 101 -1 0 -7 -17 -14 -37z"/>
<path d="M1696 744 c-26 -25 -19 -32 34 -31 50 0 62 11 38 35 -17 17 -54 15
-72 -4z"/>
<path d="M2242 748 c-25 -25 -13 -36 38 -36 55 0 55 0 40 29 -12 22 -59 26
-78 7z"/>
</g>
</svg>
